Coordinates
version=1
nRows=16
nColumns=40
inDegrees=yes

Units are S.I. units (second, meters, Newtons, ...)
Angles are in degrees.

endheader
time	pelvis_tilt	pelvis_list	pelvis_rotation	pelvis_tx	pelvis_ty	pelvis_tz	hip_flexion_r	hip_adduction_r	hip_rotation_r	knee_angle_r	knee_angle_r_beta	ankle_angle_r	subtalar_angle_r	mtp_angle_r	hip_flexion_l	hip_adduction_l	hip_rotation_l	knee_angle_l	knee_angle_l_beta	ankle_angle_l	subtalar_angle_l	mtp_angle_l	lumbar_extension	lumbar_bending	lumbar_rotation	arm_flex_r	arm_add_r	arm_rot_r	elbow_flex_r	pro_sup_r	wrist_flex_r	wrist_dev_r	arm_flex_l	arm_add_l	arm_rot_l	elbow_flex_l	pro_sup_l	wrist_flex_l	wrist_dev_l
     40.99000000	     -2.48375454	     -5.94199947	      2.09524381	      1.13022944	      0.92300334	      0.52288420	     13.10019265	      4.88915921	     -8.89038873	     23.90684701	     23.90684701	     14.81937571	     -5.84427093	     -1.60369454	     11.23696567	    -16.93786877	     -3.35952847	     44.86132757	     44.86132757	      9.12045270	    -11.34527906	    -13.13682400	     -8.09236276	      4.35718246	      0.22817503	      6.58928358	    -13.68043013	     -7.84823265	     28.61829660	     46.24773067	      0.00000000	      0.00000000	     11.40959568	     -9.32505204	     -4.07667072	     31.20110672	     45.48832743	      0.00000000	      0.00000000
     41.01128571	     -2.27622833	     -5.93593902	      2.94003313	      1.12822707	      0.92103192	      0.52499581	     13.35091511	      4.96520678	     -9.20325572	     25.07136334	     25.07136334	     15.41195489	     -6.88784746	     -1.84040313	     15.09595943	    -17.02363756	     -0.87468906	     50.70293519	     50.70293519	      7.02859505	    -13.40685306	    -12.65873608	     -8.43405023	      4.35238841	      0.63602229	      9.89404721	    -13.97092907	     -7.89674233	     30.29028111	     46.20902808	      0.00000000	      0.00000000	      9.37674228	     -8.80284274	     -3.75532055	     29.87921026	     45.41808166	      0.00000000	      0.00000000
     41.03257143	     -2.08195603	     -5.64787871	      3.73794319	      1.12604681	      0.91907792	      0.52690615	     13.73505877	      4.75772435	     -9.25283755	     26.51133686	     26.51133686	     16.23053874	     -8.16296674	     -1.31944703	     18.87771321	    -16.35091136	      1.69926486	     56.31372072	     56.31372072	      7.14560713	    -14.41205461	     -6.05235423	     -8.80632470	      4.05726311	      0.72180865	     13.47349769	    -14.44572112	     -6.48984285	     32.92766219	     46.03272025	      0.00000000	      0.00000000	      7.32270489	     -8.69701450	     -1.58990047	     27.83465918	     45.13234172	      0.00000000	      0.00000000
     41.05385714	     -1.85441974	     -5.49703899	      4.53185869	      1.12395043	      0.91725386	      0.52871084	     13.92659916	      4.71116844	     -9.38098155	     27.65342230	     27.65342230	     16.90967847	     -9.26983509	     -1.04208087	     22.31016017	    -15.71381715	      3.94845464	     60.95585650	     60.95585650	      7.12405243	    -15.27114418	     -0.45318922	     -9.20731052	      3.96036462	      0.96541473	     17.10349991	    -15.09386762	     -5.30117244	     35.38358746	     45.88822262	      0.00000000	      0.00000000	      4.99709329	     -8.60479062	      0.62521932	     26.64771788	     44.82557650	      0.00000000	      0.00000000
     41.07514286	     -1.57577027	     -5.34050449	      5.34981465	      1.12189243	      0.91585386	      0.53016344	     13.92732298	      4.64984973	     -9.58058788	     28.55242671	     28.55242671	     17.49066941	    -10.21972336	     -0.75875716	     25.28008929	    -14.95695538	      5.89019535	     64.45491426	     64.45491426	      7.05238756	    -16.17713075	      4.03912731	     -9.65570811	      3.87607093	      1.26321054	     20.81233983	    -15.85446331	     -4.28630110	     37.73584979	     45.77141972	      0.00000000	      0.00000000	      2.57898020	     -8.75134920	      4.12524719	     26.03288747	     44.40066755	      0.00000000	      0.00000000
     41.09642857	     -1.53133647	     -5.24288535	      6.08743790	      1.11980259	      0.91458432	      0.53153297	     14.08219715	      4.63958863	     -9.80631669	     29.22615567	     29.22615567	     17.76144265	    -11.11005755	     -0.77584447	     28.05068660	    -14.21532151	      7.48632435	     66.68083195	     66.68083195	      6.06148712	    -17.60977300	      5.15723222	     -9.83374552	      3.78358670	      1.62319783	     24.55333970	    -16.35859024	     -4.47199680	     39.66200544	     45.73355945	      0.00000000	      0.00000000	      0.39923419	     -8.42422583	      4.56038645	     24.99002428	     44.30826228	      0.00000000	      0.00000000
     41.11771429	     -1.24661035	     -5.06507646	      6.73392564	      1.11796136	      0.91438862	      0.53240694	     13.66017265	      4.56630596	    -10.02586685	     29.37605997	     29.37605997	     18.08335355	    -11.59701075	     -0.77607722	     30.06703477	    -13.68075072	      8.31538510	     67.69493022	     67.69493022	      5.67618186	    -18.30935240	      5.81657448	    -10.30563690	      3.77267819	      2.67038760	     28.31919389	    -17.62905273	     -4.74615286	     41.21094284	     45.71541640	      0.00000000	      0.00000000	     -1.38007856	     -8.07606046	      4.78706487	     24.32729151	     44.24299688	      0.00000000	      0.00000000
     41.13900000	     -1.28805634	     -4.87108669	      7.49572483	      1.11592404	      0.91429730	      0.53276679	     13.55821717	      4.42097575	    -10.27505455	     29.44551129	     29.44551129	     18.32858456	    -12.21753432	     -0.29580581	     32.35955769	    -12.70896203	      9.36947836	     68.14698435	     68.14698435	      7.86068959	    -18.50342192	     12.73449949	    -10.40814756	      3.67982953	      2.33070779	     32.12818667	    -18.01420326	     -3.77140965	     44.30647214	     45.57741857	      0.00000000	      0.00000000	     -4.28024226	     -8.36242524	      7.28396062	     25.03207912	     43.78697796	      0.00000000	      0.00000000
     41.16028571	     -1.33416943	     -4.68523530	      8.20829532	      1.11397178	      0.91491775	      0.53282237	     13.20336849	      4.26795544	    -10.63848946	     29.03691241	     29.03691241	     18.33682371	    -12.52643225	     -0.14357011	     34.02072820	    -12.01832847	      9.84976074	     67.06960749	     67.06960749	      8.52231319	    -18.82210102	     14.30747947	    -10.50874245	      3.59449151	      2.64020057	     35.67682698	    -18.96030181	     -2.98975851	     46.90015319	     45.48118804	      0.00000000	      0.00000000	     -6.88708954	     -8.99034609	     11.93153364	     26.57705388	     43.09426545	      0.00000000	      0.00000000
     41.18157143	     -1.46439936	     -4.50086323	      8.92368749	      1.11205588	      0.91607400	      0.53244856	     12.75282734	      4.08889409	    -11.07253773	     28.29347777	     28.29347777	     18.21768482	    -12.63240715	      0.03413630	     35.25860457	    -11.36733434	     10.06426907	     64.81828988	     64.81828988	      8.89961819	    -18.98898552	     14.35162479	    -10.49731984	      3.50488908	      2.86199858	     39.42179555	    -19.49596958	     -3.34985031	     48.80641429	     45.45230665	      0.00000000	      0.00000000	     -8.67176334	     -8.79303419	     12.47492001	     26.02241709	     43.00621741	      0.00000000	      0.00000000
     41.20285714	     -1.69095686	     -4.27059788	      9.62143824	      1.11008468	      0.91758289	      0.53161430	     12.27797670	      3.81560818	    -11.57103690	     27.33766654	     27.33766654	     18.02058396	    -12.55317516	      0.18155619	     36.08938572	    -10.62423929	     10.10931649	     61.55957234	     61.55957234	      9.31619724	    -19.01096403	     14.37146636	    -10.41375994	      3.36195819	      3.02788457	     43.07478753	    -20.00677817	     -3.59604473	     50.88196020	     45.41125457	      0.00000000	      0.00000000	    -10.42243111	     -8.63465676	     12.97187718	     25.95098903	     42.91626744	      0.00000000	      0.00000000
     41.22414286	     -2.11631287	     -3.98882841	     10.28499117	      1.10806000	      0.91914579	      0.53044346	     11.94664130	      3.43827123	    -12.07231595	     26.28012744	     26.28012744	     17.76232418	    -12.40529191	      0.36091828	     36.62147393	     -9.75286623	     10.05794088	     57.44006327	     57.44006327	      9.60522270	    -18.91337901	     14.38767248	    -10.13158876	      3.10557510	      3.32436593	     46.62203066	    -20.66575327	     -3.82455473	     52.71901583	     45.37667652	      0.00000000	      0.00000000	    -11.92707354	     -8.46353357	     13.28342169	     25.94206199	     42.84969244	      0.00000000	      0.00000000
     41.24542857	     -2.38015139	     -3.76323482	     10.98397907	      1.10625262	      0.92106703	      0.52882683	     11.25842483	      3.09746831	    -12.85716033	     24.92838598	     24.92838598	     17.46454746	    -11.76754623	      0.27298480	     36.47627859	     -8.94373564	     10.04144937	     52.54080893	     52.54080893	      9.44270248	    -18.63814194	     13.48901184	    -10.05505349	      2.99656376	      2.94619035	     50.07523651	    -20.58246501	     -3.74279448	     55.50514898	     45.29637055	      0.00000000	      0.00000000	    -13.91266616	     -8.37715946	     13.94673685	     26.67916465	     42.72637371	      0.00000000	      0.00000000
     41.26671429	     -2.81757117	     -3.57822831	     11.58001468	      1.10455662	      0.92249164	      0.52710372	     10.77049912	      2.79565840	    -13.49490337	     23.57000543	     23.57000543	     16.76991838	    -11.45441707	     -0.89591392	     35.97702183	     -8.35700462	      9.68510850	     46.82511782	     46.82511782	      7.39133929	    -18.31132918	      7.96041337	     -9.79767500	      2.87113119	      3.16016269	     52.99919856	    -21.34557568	     -3.15375379	     58.68736149	     45.20682245	      0.00000000	      0.00000000	    -16.20920829	     -9.27321178	     17.40018408	     30.20902890	     42.35063512	      0.00000000	      0.00000000
     41.28800000	     -3.18030432	     -3.39874867	     12.13209911	      1.10303463	      0.92387353	      0.52505335	     10.18921278	      2.47916634	    -14.23010399	     22.26276177	     22.26276177	     16.39291654	    -10.76080285	     -1.38278420	     35.17155763	     -7.70229099	      9.45690747	     41.14056212	     41.14056212	      6.49525082	    -17.38500107	      6.00840744	     -9.55622508	      2.77113446	      3.23699941	     56.12054413	    -21.52245495	     -3.21548516	     60.90672617	     45.18657903	      0.00000000	      0.00000000	    -17.51733731	     -9.62190384	     20.37849808	     31.11275138	     42.22681783	      0.00000000	      0.00000000
     41.30928571	     -3.69191022	     -3.30704721	     12.59019546	      1.10158820	      0.92458037	      0.52284924	      9.96005707	      2.24207008	    -14.62918408	     21.30092489	     21.30092489	     16.22338678	    -10.47545298	     -1.23677912	     34.51071344	     -7.14580925	      9.14721095	     35.88833167	     35.88833167	      6.63274947	    -15.55667321	      6.67614672	     -9.06756277	      2.70198161	      3.44842721	     59.26583843	    -21.67783754	     -3.34824520	     62.33200162	     45.16038371	      0.00000000	      0.00000000	    -18.34130563	     -9.36603161	     20.59205021	     31.03902754	     42.20605408	      0.00000000	      0.00000000
